<mxfile host="app.diagrams.net" modified="2023-07-24T20:15:53.256Z" agent="Mozilla/5.0 (Windows NT 10.0; Win64; x64) AppleWebKit/537.36 (KHTML, like Gecko) Chrome/115.0.0.0 Safari/537.36" etag="RSAbEW6PJLRsKu-OrwzY" version="21.6.5" type="device" pages="5">
  <diagram name="Página-1" id="VebnQgFtiFilX5YSEMuY">
    <mxGraphModel dx="1050" dy="1743" grid="1" gridSize="10" guides="1" tooltips="1" connect="1" arrows="1" fold="1" page="1" pageScale="1" pageWidth="827" pageHeight="1169" math="0" shadow="0">
      <root>
        <mxCell id="0" />
        <mxCell id="1" parent="0" />
        <mxCell id="9XZoJemryePzEbakFqGj-1" value="&lt;div&gt;Você deverá criar a modelagem para o catálogo de filmes, observando a seguinte situação:&lt;/div&gt;&lt;div&gt;&lt;br&gt;&lt;/div&gt;&lt;div&gt;- um filme possui apenas um único gênero.&lt;/div&gt;&lt;div&gt;- um gênero pode definir mais de um filme.&lt;/div&gt;" style="text;html=1;align=center;verticalAlign=middle;resizable=0;points=[];autosize=1;strokeColor=none;fillColor=none;" vertex="1" parent="1">
          <mxGeometry x="140" y="-1100" width="510" height="70" as="geometry" />
        </mxCell>
        <mxCell id="9XZoJemryePzEbakFqGj-4" style="edgeStyle=orthogonalEdgeStyle;rounded=0;orthogonalLoop=1;jettySize=auto;html=1;entryX=0;entryY=0.5;entryDx=0;entryDy=0;endArrow=none;endFill=0;" edge="1" parent="1" source="9XZoJemryePzEbakFqGj-2" target="9XZoJemryePzEbakFqGj-3">
          <mxGeometry relative="1" as="geometry" />
        </mxCell>
        <mxCell id="9XZoJemryePzEbakFqGj-7" value="N" style="edgeLabel;html=1;align=center;verticalAlign=middle;resizable=0;points=[];" vertex="1" connectable="0" parent="9XZoJemryePzEbakFqGj-4">
          <mxGeometry x="-0.7333" relative="1" as="geometry">
            <mxPoint as="offset" />
          </mxGeometry>
        </mxCell>
        <mxCell id="9XZoJemryePzEbakFqGj-2" value="FILME&amp;nbsp;" style="whiteSpace=wrap;html=1;align=center;" vertex="1" parent="1">
          <mxGeometry x="40" y="-960" width="100" height="40" as="geometry" />
        </mxCell>
        <mxCell id="9XZoJemryePzEbakFqGj-6" style="edgeStyle=orthogonalEdgeStyle;rounded=0;orthogonalLoop=1;jettySize=auto;html=1;endArrow=none;endFill=0;" edge="1" parent="1" source="9XZoJemryePzEbakFqGj-3" target="9XZoJemryePzEbakFqGj-5">
          <mxGeometry relative="1" as="geometry" />
        </mxCell>
        <mxCell id="9XZoJemryePzEbakFqGj-8" value="1" style="edgeLabel;html=1;align=center;verticalAlign=middle;resizable=0;points=[];" vertex="1" connectable="0" parent="9XZoJemryePzEbakFqGj-6">
          <mxGeometry x="0.7" y="2" relative="1" as="geometry">
            <mxPoint as="offset" />
          </mxGeometry>
        </mxCell>
        <mxCell id="9XZoJemryePzEbakFqGj-3" value="POSSUI&amp;nbsp;" style="shape=rhombus;perimeter=rhombusPerimeter;whiteSpace=wrap;html=1;align=center;" vertex="1" parent="1">
          <mxGeometry x="320" y="-970" width="120" height="60" as="geometry" />
        </mxCell>
        <mxCell id="9XZoJemryePzEbakFqGj-5" value="GÊNERO" style="whiteSpace=wrap;html=1;align=center;" vertex="1" parent="1">
          <mxGeometry x="600" y="-960" width="100" height="40" as="geometry" />
        </mxCell>
      </root>
    </mxGraphModel>
  </diagram>
  <diagram id="opUZVZgDra6aGaHhDxZI" name="Página-2">
    <mxGraphModel dx="1050" dy="574" grid="1" gridSize="10" guides="1" tooltips="1" connect="1" arrows="1" fold="1" page="1" pageScale="1" pageWidth="827" pageHeight="1169" math="0" shadow="0">
      <root>
        <mxCell id="0" />
        <mxCell id="1" parent="0" />
        <mxCell id="aJNk8CV3GnpALRIsfwFP-1" value="&lt;div&gt;Construa a modelagem que represente pessoas e seus dados, observando que:&lt;/div&gt;&lt;div&gt;&lt;br&gt;&lt;/div&gt;&lt;div&gt;- uma pessoa pode ter vários telefones e vários emails, porém, pode possuir somente uma CNH.&lt;/div&gt;" style="text;html=1;align=center;verticalAlign=middle;resizable=0;points=[];autosize=1;strokeColor=none;fillColor=none;" vertex="1" parent="1">
          <mxGeometry x="130" y="50" width="540" height="60" as="geometry" />
        </mxCell>
        <mxCell id="aJNk8CV3GnpALRIsfwFP-7" style="edgeStyle=orthogonalEdgeStyle;rounded=0;orthogonalLoop=1;jettySize=auto;html=1;endArrow=none;endFill=0;entryX=0.616;entryY=-0.01;entryDx=0;entryDy=0;entryPerimeter=0;exitX=0.5;exitY=1;exitDx=0;exitDy=0;" edge="1" parent="1" source="aJNk8CV3GnpALRIsfwFP-13" target="aJNk8CV3GnpALRIsfwFP-11">
          <mxGeometry relative="1" as="geometry">
            <mxPoint x="140" y="170" as="sourcePoint" />
            <Array as="points">
              <mxPoint x="90" y="240" />
              <mxPoint x="112" y="240" />
            </Array>
          </mxGeometry>
        </mxCell>
        <mxCell id="aJNk8CV3GnpALRIsfwFP-8" style="edgeStyle=orthogonalEdgeStyle;rounded=0;orthogonalLoop=1;jettySize=auto;html=1;endArrow=none;endFill=0;" edge="1" parent="1" source="aJNk8CV3GnpALRIsfwFP-3" target="aJNk8CV3GnpALRIsfwFP-4">
          <mxGeometry relative="1" as="geometry" />
        </mxCell>
        <mxCell id="aJNk8CV3GnpALRIsfwFP-17" value="1" style="edgeLabel;html=1;align=center;verticalAlign=middle;resizable=0;points=[];" vertex="1" connectable="0" parent="aJNk8CV3GnpALRIsfwFP-8">
          <mxGeometry x="0.6375" y="1" relative="1" as="geometry">
            <mxPoint as="offset" />
          </mxGeometry>
        </mxCell>
        <mxCell id="aJNk8CV3GnpALRIsfwFP-3" value="possui&amp;nbsp;" style="shape=rhombus;perimeter=rhombusPerimeter;whiteSpace=wrap;html=1;align=center;" vertex="1" parent="1">
          <mxGeometry x="320" y="200" width="120" height="60" as="geometry" />
        </mxCell>
        <mxCell id="aJNk8CV3GnpALRIsfwFP-4" value="CNH" style="whiteSpace=wrap;html=1;align=center;" vertex="1" parent="1">
          <mxGeometry x="600" y="210" width="100" height="40" as="geometry" />
        </mxCell>
        <mxCell id="aJNk8CV3GnpALRIsfwFP-15" style="edgeStyle=orthogonalEdgeStyle;rounded=0;orthogonalLoop=1;jettySize=auto;html=1;entryX=0;entryY=0.5;entryDx=0;entryDy=0;endArrow=none;endFill=0;" edge="1" parent="1" source="aJNk8CV3GnpALRIsfwFP-11" target="aJNk8CV3GnpALRIsfwFP-3">
          <mxGeometry relative="1" as="geometry" />
        </mxCell>
        <mxCell id="aJNk8CV3GnpALRIsfwFP-16" value="1" style="edgeLabel;html=1;align=center;verticalAlign=middle;resizable=0;points=[];" vertex="1" connectable="0" parent="aJNk8CV3GnpALRIsfwFP-15">
          <mxGeometry x="-0.7529" relative="1" as="geometry">
            <mxPoint as="offset" />
          </mxGeometry>
        </mxCell>
        <mxCell id="aJNk8CV3GnpALRIsfwFP-11" value="Pessoa" style="whiteSpace=wrap;html=1;align=center;" vertex="1" parent="1">
          <mxGeometry x="50" y="210" width="100" height="40" as="geometry" />
        </mxCell>
        <mxCell id="aJNk8CV3GnpALRIsfwFP-14" style="edgeStyle=orthogonalEdgeStyle;rounded=0;orthogonalLoop=1;jettySize=auto;html=1;exitX=0.5;exitY=0;exitDx=0;exitDy=0;endArrow=none;endFill=0;" edge="1" parent="1" source="aJNk8CV3GnpALRIsfwFP-12" target="aJNk8CV3GnpALRIsfwFP-11">
          <mxGeometry relative="1" as="geometry">
            <mxPoint x="90" y="290" as="targetPoint" />
            <Array as="points">
              <mxPoint x="90" y="340" />
              <mxPoint x="91" y="340" />
            </Array>
          </mxGeometry>
        </mxCell>
        <mxCell id="aJNk8CV3GnpALRIsfwFP-12" value="emails" style="ellipse;whiteSpace=wrap;html=1;align=center;" vertex="1" parent="1">
          <mxGeometry x="40" y="300" width="100" height="40" as="geometry" />
        </mxCell>
        <mxCell id="aJNk8CV3GnpALRIsfwFP-13" value="telefone" style="ellipse;whiteSpace=wrap;html=1;align=center;" vertex="1" parent="1">
          <mxGeometry x="40" y="120" width="100" height="40" as="geometry" />
        </mxCell>
      </root>
    </mxGraphModel>
  </diagram>
  <diagram id="iOae_KDrkdtE5dlfidPS" name="Página-3">
    <mxGraphModel dx="1050" dy="574" grid="1" gridSize="10" guides="1" tooltips="1" connect="1" arrows="1" fold="1" page="1" pageScale="1" pageWidth="827" pageHeight="1169" math="0" shadow="0">
      <root>
        <mxCell id="0" />
        <mxCell id="1" parent="0" />
        <mxCell id="bMxJ3kN4K4j_Tly0C39R-1" value="&lt;div&gt;Construa o Modelo Entidade Relacionamento considerando o seguinte cenário:&lt;/div&gt;&lt;div&gt;&lt;br&gt;&lt;/div&gt;&lt;div&gt;- uma empresa possui vários veículos&lt;/div&gt;&lt;div&gt;- um veículo possui marca(gm, ford, fiat), modelo(onix, fiesta, argo) e placa&lt;/div&gt;&lt;div&gt;- um cliente (cpf, nome) aluga um ou mais veículos&lt;/div&gt;" style="text;html=1;align=center;verticalAlign=middle;resizable=0;points=[];autosize=1;strokeColor=none;fillColor=none;" vertex="1" parent="1">
          <mxGeometry x="170" y="40" width="450" height="90" as="geometry" />
        </mxCell>
        <mxCell id="bMxJ3kN4K4j_Tly0C39R-23" style="edgeStyle=orthogonalEdgeStyle;rounded=0;orthogonalLoop=1;jettySize=auto;html=1;entryX=0.5;entryY=0;entryDx=0;entryDy=0;endArrow=none;endFill=0;" edge="1" parent="1" source="bMxJ3kN4K4j_Tly0C39R-2" target="bMxJ3kN4K4j_Tly0C39R-13">
          <mxGeometry relative="1" as="geometry" />
        </mxCell>
        <mxCell id="PEvDfl6nuE_HTKdcoG4_-1" value="1" style="edgeLabel;html=1;align=center;verticalAlign=middle;resizable=0;points=[];" vertex="1" connectable="0" parent="bMxJ3kN4K4j_Tly0C39R-23">
          <mxGeometry x="-0.5267" y="1" relative="1" as="geometry">
            <mxPoint as="offset" />
          </mxGeometry>
        </mxCell>
        <mxCell id="bMxJ3kN4K4j_Tly0C39R-31" style="edgeStyle=orthogonalEdgeStyle;rounded=0;orthogonalLoop=1;jettySize=auto;html=1;entryX=0;entryY=0.5;entryDx=0;entryDy=0;endArrow=none;endFill=0;" edge="1" parent="1" source="bMxJ3kN4K4j_Tly0C39R-2" target="bMxJ3kN4K4j_Tly0C39R-22">
          <mxGeometry relative="1" as="geometry" />
        </mxCell>
        <mxCell id="PEvDfl6nuE_HTKdcoG4_-3" value="1" style="edgeLabel;html=1;align=center;verticalAlign=middle;resizable=0;points=[];" vertex="1" connectable="0" parent="bMxJ3kN4K4j_Tly0C39R-31">
          <mxGeometry x="-0.7078" relative="1" as="geometry">
            <mxPoint as="offset" />
          </mxGeometry>
        </mxCell>
        <mxCell id="bMxJ3kN4K4j_Tly0C39R-2" value="Empresa" style="whiteSpace=wrap;html=1;align=center;" vertex="1" parent="1">
          <mxGeometry x="130" y="200" width="100" height="40" as="geometry" />
        </mxCell>
        <mxCell id="bMxJ3kN4K4j_Tly0C39R-28" style="edgeStyle=orthogonalEdgeStyle;rounded=0;orthogonalLoop=1;jettySize=auto;html=1;entryX=0;entryY=0.5;entryDx=0;entryDy=0;exitX=1;exitY=0.25;exitDx=0;exitDy=0;endArrow=none;endFill=0;" edge="1" parent="1" source="bMxJ3kN4K4j_Tly0C39R-12" target="bMxJ3kN4K4j_Tly0C39R-14">
          <mxGeometry relative="1" as="geometry" />
        </mxCell>
        <mxCell id="PEvDfl6nuE_HTKdcoG4_-5" value="n" style="edgeLabel;html=1;align=center;verticalAlign=middle;resizable=0;points=[];" vertex="1" connectable="0" parent="bMxJ3kN4K4j_Tly0C39R-28">
          <mxGeometry x="-0.6383" y="2" relative="1" as="geometry">
            <mxPoint as="offset" />
          </mxGeometry>
        </mxCell>
        <mxCell id="bMxJ3kN4K4j_Tly0C39R-12" value="veículos" style="whiteSpace=wrap;html=1;align=center;" vertex="1" parent="1">
          <mxGeometry x="130" y="450" width="100" height="40" as="geometry" />
        </mxCell>
        <mxCell id="bMxJ3kN4K4j_Tly0C39R-24" style="edgeStyle=orthogonalEdgeStyle;rounded=0;orthogonalLoop=1;jettySize=auto;html=1;endArrow=none;endFill=0;" edge="1" parent="1" source="bMxJ3kN4K4j_Tly0C39R-13" target="bMxJ3kN4K4j_Tly0C39R-12">
          <mxGeometry relative="1" as="geometry" />
        </mxCell>
        <mxCell id="PEvDfl6nuE_HTKdcoG4_-2" value="n" style="edgeLabel;html=1;align=center;verticalAlign=middle;resizable=0;points=[];" vertex="1" connectable="0" parent="bMxJ3kN4K4j_Tly0C39R-24">
          <mxGeometry x="0.4489" y="-1" relative="1" as="geometry">
            <mxPoint as="offset" />
          </mxGeometry>
        </mxCell>
        <mxCell id="bMxJ3kN4K4j_Tly0C39R-13" value="possui" style="shape=rhombus;perimeter=rhombusPerimeter;whiteSpace=wrap;html=1;align=center;" vertex="1" parent="1">
          <mxGeometry x="120" y="300" width="120" height="60" as="geometry" />
        </mxCell>
        <mxCell id="bMxJ3kN4K4j_Tly0C39R-29" style="edgeStyle=orthogonalEdgeStyle;rounded=0;orthogonalLoop=1;jettySize=auto;html=1;entryX=0.5;entryY=1;entryDx=0;entryDy=0;endArrow=none;endFill=0;" edge="1" parent="1" source="bMxJ3kN4K4j_Tly0C39R-14" target="bMxJ3kN4K4j_Tly0C39R-15">
          <mxGeometry relative="1" as="geometry" />
        </mxCell>
        <mxCell id="PEvDfl6nuE_HTKdcoG4_-6" value="1" style="edgeLabel;html=1;align=center;verticalAlign=middle;resizable=0;points=[];" vertex="1" connectable="0" parent="bMxJ3kN4K4j_Tly0C39R-29">
          <mxGeometry x="0.62" y="1" relative="1" as="geometry">
            <mxPoint as="offset" />
          </mxGeometry>
        </mxCell>
        <mxCell id="bMxJ3kN4K4j_Tly0C39R-14" value="aluga" style="shape=rhombus;perimeter=rhombusPerimeter;whiteSpace=wrap;html=1;align=center;" vertex="1" parent="1">
          <mxGeometry x="345" y="430" width="120" height="60" as="geometry" />
        </mxCell>
        <mxCell id="bMxJ3kN4K4j_Tly0C39R-15" value="cliente" style="whiteSpace=wrap;html=1;align=center;" vertex="1" parent="1">
          <mxGeometry x="355" y="310" width="100" height="40" as="geometry" />
        </mxCell>
        <mxCell id="bMxJ3kN4K4j_Tly0C39R-25" style="edgeStyle=orthogonalEdgeStyle;rounded=0;orthogonalLoop=1;jettySize=auto;html=1;entryX=0;entryY=0.5;entryDx=0;entryDy=0;endArrow=none;endFill=0;" edge="1" parent="1" source="bMxJ3kN4K4j_Tly0C39R-16" target="bMxJ3kN4K4j_Tly0C39R-12">
          <mxGeometry relative="1" as="geometry">
            <mxPoint x="160" y="500" as="targetPoint" />
            <Array as="points">
              <mxPoint x="110" y="470" />
            </Array>
          </mxGeometry>
        </mxCell>
        <mxCell id="bMxJ3kN4K4j_Tly0C39R-16" value="marca&amp;nbsp;" style="ellipse;whiteSpace=wrap;html=1;align=center;" vertex="1" parent="1">
          <mxGeometry x="10" y="520" width="100" height="40" as="geometry" />
        </mxCell>
        <mxCell id="bMxJ3kN4K4j_Tly0C39R-26" style="edgeStyle=orthogonalEdgeStyle;rounded=0;orthogonalLoop=1;jettySize=auto;html=1;endArrow=none;endFill=0;" edge="1" parent="1" source="bMxJ3kN4K4j_Tly0C39R-17">
          <mxGeometry relative="1" as="geometry">
            <mxPoint x="160" y="490" as="targetPoint" />
            <Array as="points">
              <mxPoint x="160" y="540" />
              <mxPoint x="160" y="540" />
            </Array>
          </mxGeometry>
        </mxCell>
        <mxCell id="bMxJ3kN4K4j_Tly0C39R-17" value="modelo" style="ellipse;whiteSpace=wrap;html=1;align=center;" vertex="1" parent="1">
          <mxGeometry x="110" y="565" width="100" height="40" as="geometry" />
        </mxCell>
        <mxCell id="bMxJ3kN4K4j_Tly0C39R-27" style="edgeStyle=orthogonalEdgeStyle;rounded=0;orthogonalLoop=1;jettySize=auto;html=1;entryX=0.856;entryY=1;entryDx=0;entryDy=0;entryPerimeter=0;endArrow=none;endFill=0;" edge="1" parent="1" source="bMxJ3kN4K4j_Tly0C39R-18" target="bMxJ3kN4K4j_Tly0C39R-12">
          <mxGeometry relative="1" as="geometry">
            <mxPoint x="160" y="492" as="targetPoint" />
            <Array as="points">
              <mxPoint x="270" y="525" />
              <mxPoint x="210" y="525" />
              <mxPoint x="210" y="490" />
            </Array>
          </mxGeometry>
        </mxCell>
        <mxCell id="bMxJ3kN4K4j_Tly0C39R-18" value="placa" style="ellipse;whiteSpace=wrap;html=1;align=center;" vertex="1" parent="1">
          <mxGeometry x="220" y="560" width="100" height="40" as="geometry" />
        </mxCell>
        <mxCell id="bMxJ3kN4K4j_Tly0C39R-32" style="edgeStyle=orthogonalEdgeStyle;rounded=0;orthogonalLoop=1;jettySize=auto;html=1;endArrow=none;endFill=0;" edge="1" parent="1" source="bMxJ3kN4K4j_Tly0C39R-19" target="bMxJ3kN4K4j_Tly0C39R-15">
          <mxGeometry relative="1" as="geometry" />
        </mxCell>
        <mxCell id="bMxJ3kN4K4j_Tly0C39R-19" value="cpf" style="ellipse;whiteSpace=wrap;html=1;align=center;" vertex="1" parent="1">
          <mxGeometry x="520" y="270" width="100" height="40" as="geometry" />
        </mxCell>
        <mxCell id="bMxJ3kN4K4j_Tly0C39R-33" style="edgeStyle=orthogonalEdgeStyle;rounded=0;orthogonalLoop=1;jettySize=auto;html=1;entryX=1;entryY=0.5;entryDx=0;entryDy=0;endArrow=none;endFill=0;" edge="1" parent="1" source="bMxJ3kN4K4j_Tly0C39R-20" target="bMxJ3kN4K4j_Tly0C39R-15">
          <mxGeometry relative="1" as="geometry" />
        </mxCell>
        <mxCell id="bMxJ3kN4K4j_Tly0C39R-20" value="nome" style="ellipse;whiteSpace=wrap;html=1;align=center;" vertex="1" parent="1">
          <mxGeometry x="520" y="340" width="100" height="40" as="geometry" />
        </mxCell>
        <mxCell id="bMxJ3kN4K4j_Tly0C39R-30" style="edgeStyle=orthogonalEdgeStyle;rounded=0;orthogonalLoop=1;jettySize=auto;html=1;entryX=0.4;entryY=0;entryDx=0;entryDy=0;entryPerimeter=0;endArrow=none;endFill=0;" edge="1" parent="1" source="bMxJ3kN4K4j_Tly0C39R-22" target="bMxJ3kN4K4j_Tly0C39R-15">
          <mxGeometry relative="1" as="geometry">
            <Array as="points">
              <mxPoint x="405" y="310" />
            </Array>
          </mxGeometry>
        </mxCell>
        <mxCell id="PEvDfl6nuE_HTKdcoG4_-4" value="n" style="edgeLabel;html=1;align=center;verticalAlign=middle;resizable=0;points=[];" vertex="1" connectable="0" parent="bMxJ3kN4K4j_Tly0C39R-30">
          <mxGeometry x="0.12" y="2" relative="1" as="geometry">
            <mxPoint as="offset" />
          </mxGeometry>
        </mxCell>
        <mxCell id="bMxJ3kN4K4j_Tly0C39R-22" value="possui" style="shape=rhombus;perimeter=rhombusPerimeter;whiteSpace=wrap;html=1;align=center;" vertex="1" parent="1">
          <mxGeometry x="345" y="190" width="120" height="60" as="geometry" />
        </mxCell>
      </root>
    </mxGraphModel>
  </diagram>
  <diagram id="SkbLXtfN9A78B8Pajuh2" name="Página-4">
    <mxGraphModel dx="1050" dy="1743" grid="1" gridSize="10" guides="1" tooltips="1" connect="1" arrows="1" fold="1" page="1" pageScale="1" pageWidth="827" pageHeight="1169" math="0" shadow="0">
      <root>
        <mxCell id="0" />
        <mxCell id="1" parent="0" />
        <mxCell id="m7IBBowrxkoO5DfL3Zj2-1" value="&lt;div&gt;Uma clínica veterinária deseja cadastrar os pets que são atendidos em seu local.&lt;/div&gt;&lt;div&gt;&lt;br&gt;&lt;/div&gt;&lt;div&gt;- a clínica contém um endereço;&lt;/div&gt;&lt;div&gt;&lt;br&gt;&lt;/div&gt;&lt;div&gt;- os pets deverão ter nome, data de nascimento, tipo de pet;&lt;/div&gt;&lt;div&gt;&lt;br&gt;&lt;/div&gt;&lt;div&gt;- os pets deverão ter raça;&lt;/div&gt;&lt;div&gt;&lt;br&gt;&lt;/div&gt;&lt;div&gt;- os pets deverão ter donos;&lt;/div&gt;&lt;div&gt;&lt;br&gt;&lt;/div&gt;&lt;div&gt;- a clínica deseja cadastrar seus veterinários e todo atendimento de pet será feito por um veterinário;&lt;/div&gt;&lt;div&gt;&lt;br&gt;&lt;/div&gt;" style="text;html=1;align=center;verticalAlign=middle;resizable=0;points=[];autosize=1;strokeColor=none;fillColor=none;" vertex="1" parent="1">
          <mxGeometry x="90" y="-12" width="560" height="190" as="geometry" />
        </mxCell>
        <mxCell id="m7IBBowrxkoO5DfL3Zj2-12" style="edgeStyle=orthogonalEdgeStyle;rounded=0;orthogonalLoop=1;jettySize=auto;html=1;endArrow=none;endFill=0;" edge="1" parent="1" source="m7IBBowrxkoO5DfL3Zj2-2" target="m7IBBowrxkoO5DfL3Zj2-3">
          <mxGeometry relative="1" as="geometry" />
        </mxCell>
        <mxCell id="m7IBBowrxkoO5DfL3Zj2-32" value="1" style="edgeLabel;html=1;align=center;verticalAlign=middle;resizable=0;points=[];" vertex="1" connectable="0" parent="m7IBBowrxkoO5DfL3Zj2-12">
          <mxGeometry x="-0.485" y="1" relative="1" as="geometry">
            <mxPoint as="offset" />
          </mxGeometry>
        </mxCell>
        <mxCell id="m7IBBowrxkoO5DfL3Zj2-16" style="edgeStyle=orthogonalEdgeStyle;rounded=0;orthogonalLoop=1;jettySize=auto;html=1;entryX=0;entryY=0.5;entryDx=0;entryDy=0;endArrow=none;endFill=0;" edge="1" parent="1" source="m7IBBowrxkoO5DfL3Zj2-2" target="m7IBBowrxkoO5DfL3Zj2-5">
          <mxGeometry relative="1" as="geometry" />
        </mxCell>
        <mxCell id="m7IBBowrxkoO5DfL3Zj2-34" value="1" style="edgeLabel;html=1;align=center;verticalAlign=middle;resizable=0;points=[];" vertex="1" connectable="0" parent="m7IBBowrxkoO5DfL3Zj2-16">
          <mxGeometry x="-0.6044" y="1" relative="1" as="geometry">
            <mxPoint as="offset" />
          </mxGeometry>
        </mxCell>
        <mxCell id="m7IBBowrxkoO5DfL3Zj2-2" value="clinica&amp;nbsp;" style="whiteSpace=wrap;html=1;align=center;" vertex="1" parent="1">
          <mxGeometry x="70" y="240" width="100" height="40" as="geometry" />
        </mxCell>
        <mxCell id="m7IBBowrxkoO5DfL3Zj2-13" style="edgeStyle=orthogonalEdgeStyle;rounded=0;orthogonalLoop=1;jettySize=auto;html=1;entryX=0.5;entryY=0;entryDx=0;entryDy=0;endArrow=none;endFill=0;" edge="1" parent="1" source="m7IBBowrxkoO5DfL3Zj2-3" target="m7IBBowrxkoO5DfL3Zj2-4">
          <mxGeometry relative="1" as="geometry" />
        </mxCell>
        <mxCell id="m7IBBowrxkoO5DfL3Zj2-31" value="n" style="edgeLabel;html=1;align=center;verticalAlign=middle;resizable=0;points=[];" vertex="1" connectable="0" parent="m7IBBowrxkoO5DfL3Zj2-13">
          <mxGeometry x="0.5533" y="-1" relative="1" as="geometry">
            <mxPoint as="offset" />
          </mxGeometry>
        </mxCell>
        <mxCell id="m7IBBowrxkoO5DfL3Zj2-3" value="cadastra&amp;nbsp;" style="shape=rhombus;perimeter=rhombusPerimeter;whiteSpace=wrap;html=1;align=center;" vertex="1" parent="1">
          <mxGeometry x="60" y="360" width="120" height="60" as="geometry" />
        </mxCell>
        <mxCell id="m7IBBowrxkoO5DfL3Zj2-4" value="veterinário&amp;nbsp;" style="whiteSpace=wrap;html=1;align=center;" vertex="1" parent="1">
          <mxGeometry x="70" y="480" width="100" height="40" as="geometry" />
        </mxCell>
        <mxCell id="m7IBBowrxkoO5DfL3Zj2-17" style="edgeStyle=orthogonalEdgeStyle;rounded=0;orthogonalLoop=1;jettySize=auto;html=1;endArrow=none;endFill=0;" edge="1" parent="1" source="m7IBBowrxkoO5DfL3Zj2-5" target="m7IBBowrxkoO5DfL3Zj2-6">
          <mxGeometry relative="1" as="geometry" />
        </mxCell>
        <mxCell id="m7IBBowrxkoO5DfL3Zj2-33" value="&amp;nbsp;n" style="edgeLabel;html=1;align=center;verticalAlign=middle;resizable=0;points=[];" vertex="1" connectable="0" parent="m7IBBowrxkoO5DfL3Zj2-17">
          <mxGeometry x="0.676" y="2" relative="1" as="geometry">
            <mxPoint as="offset" />
          </mxGeometry>
        </mxCell>
        <mxCell id="m7IBBowrxkoO5DfL3Zj2-5" value="cadastra&amp;nbsp;" style="shape=rhombus;perimeter=rhombusPerimeter;whiteSpace=wrap;html=1;align=center;" vertex="1" parent="1">
          <mxGeometry x="260" y="230" width="120" height="60" as="geometry" />
        </mxCell>
        <mxCell id="m7IBBowrxkoO5DfL3Zj2-14" style="edgeStyle=orthogonalEdgeStyle;rounded=0;orthogonalLoop=1;jettySize=auto;html=1;entryX=0.5;entryY=0;entryDx=0;entryDy=0;endArrow=none;endFill=0;" edge="1" parent="1" source="m7IBBowrxkoO5DfL3Zj2-6" target="m7IBBowrxkoO5DfL3Zj2-7">
          <mxGeometry relative="1" as="geometry" />
        </mxCell>
        <mxCell id="m7IBBowrxkoO5DfL3Zj2-36" value="n" style="edgeLabel;html=1;align=center;verticalAlign=middle;resizable=0;points=[];" vertex="1" connectable="0" parent="m7IBBowrxkoO5DfL3Zj2-14">
          <mxGeometry x="-0.685" y="2" relative="1" as="geometry">
            <mxPoint as="offset" />
          </mxGeometry>
        </mxCell>
        <mxCell id="m7IBBowrxkoO5DfL3Zj2-6" value="pets" style="whiteSpace=wrap;html=1;align=center;" vertex="1" parent="1">
          <mxGeometry x="480" y="240" width="100" height="40" as="geometry" />
        </mxCell>
        <mxCell id="m7IBBowrxkoO5DfL3Zj2-15" style="edgeStyle=orthogonalEdgeStyle;rounded=0;orthogonalLoop=1;jettySize=auto;html=1;entryX=0.5;entryY=0;entryDx=0;entryDy=0;endArrow=none;endFill=0;" edge="1" parent="1" source="m7IBBowrxkoO5DfL3Zj2-7" target="m7IBBowrxkoO5DfL3Zj2-8">
          <mxGeometry relative="1" as="geometry" />
        </mxCell>
        <mxCell id="m7IBBowrxkoO5DfL3Zj2-35" value="n" style="edgeLabel;html=1;align=center;verticalAlign=middle;resizable=0;points=[];" vertex="1" connectable="0" parent="m7IBBowrxkoO5DfL3Zj2-15">
          <mxGeometry x="0.6867" y="-1" relative="1" as="geometry">
            <mxPoint as="offset" />
          </mxGeometry>
        </mxCell>
        <mxCell id="m7IBBowrxkoO5DfL3Zj2-7" value="possui" style="shape=rhombus;perimeter=rhombusPerimeter;whiteSpace=wrap;html=1;align=center;" vertex="1" parent="1">
          <mxGeometry x="470" y="360" width="120" height="60" as="geometry" />
        </mxCell>
        <mxCell id="m7IBBowrxkoO5DfL3Zj2-8" value="donos&amp;nbsp;" style="whiteSpace=wrap;html=1;align=center;" vertex="1" parent="1">
          <mxGeometry x="480" y="480" width="100" height="40" as="geometry" />
        </mxCell>
        <mxCell id="m7IBBowrxkoO5DfL3Zj2-9" value="Atende&amp;nbsp;" style="shape=rhombus;perimeter=rhombusPerimeter;whiteSpace=wrap;html=1;align=center;" vertex="1" parent="1">
          <mxGeometry x="270" y="360" width="120" height="60" as="geometry" />
        </mxCell>
        <mxCell id="m7IBBowrxkoO5DfL3Zj2-11" style="edgeStyle=orthogonalEdgeStyle;rounded=0;orthogonalLoop=1;jettySize=auto;html=1;entryX=0.25;entryY=0;entryDx=0;entryDy=0;endArrow=none;endFill=0;" edge="1" parent="1" source="m7IBBowrxkoO5DfL3Zj2-10" target="m7IBBowrxkoO5DfL3Zj2-2">
          <mxGeometry relative="1" as="geometry" />
        </mxCell>
        <mxCell id="m7IBBowrxkoO5DfL3Zj2-10" value="&lt;span style=&quot;border-bottom: 1px dotted&quot;&gt;Endereço&lt;/span&gt;" style="ellipse;whiteSpace=wrap;html=1;align=center;" vertex="1" parent="1">
          <mxGeometry x="10" y="170" width="100" height="40" as="geometry" />
        </mxCell>
        <mxCell id="m7IBBowrxkoO5DfL3Zj2-26" style="edgeStyle=orthogonalEdgeStyle;rounded=0;orthogonalLoop=1;jettySize=auto;html=1;entryX=1;entryY=0;entryDx=0;entryDy=0;endArrow=none;endFill=0;" edge="1" parent="1" source="m7IBBowrxkoO5DfL3Zj2-18" target="m7IBBowrxkoO5DfL3Zj2-6">
          <mxGeometry relative="1" as="geometry">
            <Array as="points">
              <mxPoint x="610" y="240" />
            </Array>
          </mxGeometry>
        </mxCell>
        <mxCell id="m7IBBowrxkoO5DfL3Zj2-18" value="nome&amp;nbsp;" style="ellipse;whiteSpace=wrap;html=1;align=center;" vertex="1" parent="1">
          <mxGeometry x="610" y="170" width="100" height="40" as="geometry" />
        </mxCell>
        <mxCell id="m7IBBowrxkoO5DfL3Zj2-24" style="edgeStyle=orthogonalEdgeStyle;rounded=0;orthogonalLoop=1;jettySize=auto;html=1;entryX=1;entryY=0.5;entryDx=0;entryDy=0;endArrow=none;endFill=0;" edge="1" parent="1" source="m7IBBowrxkoO5DfL3Zj2-19" target="m7IBBowrxkoO5DfL3Zj2-6">
          <mxGeometry relative="1" as="geometry">
            <Array as="points">
              <mxPoint x="660" y="260" />
              <mxPoint x="660" y="260" />
            </Array>
          </mxGeometry>
        </mxCell>
        <mxCell id="m7IBBowrxkoO5DfL3Zj2-19" value="data de nascimento&amp;nbsp;" style="ellipse;whiteSpace=wrap;html=1;align=center;" vertex="1" parent="1">
          <mxGeometry x="680" y="230" width="100" height="40" as="geometry" />
        </mxCell>
        <mxCell id="m7IBBowrxkoO5DfL3Zj2-23" value="" style="edgeStyle=orthogonalEdgeStyle;rounded=0;orthogonalLoop=1;jettySize=auto;html=1;endArrow=none;endFill=0;" edge="1" parent="1" source="m7IBBowrxkoO5DfL3Zj2-20" target="m7IBBowrxkoO5DfL3Zj2-6">
          <mxGeometry relative="1" as="geometry" />
        </mxCell>
        <mxCell id="m7IBBowrxkoO5DfL3Zj2-20" value="tipo de pet" style="ellipse;whiteSpace=wrap;html=1;align=center;" vertex="1" parent="1">
          <mxGeometry x="480" y="170" width="100" height="40" as="geometry" />
        </mxCell>
        <mxCell id="m7IBBowrxkoO5DfL3Zj2-25" style="edgeStyle=orthogonalEdgeStyle;rounded=0;orthogonalLoop=1;jettySize=auto;html=1;entryX=0.75;entryY=1;entryDx=0;entryDy=0;endArrow=none;endFill=0;" edge="1" parent="1" source="m7IBBowrxkoO5DfL3Zj2-22" target="m7IBBowrxkoO5DfL3Zj2-6">
          <mxGeometry relative="1" as="geometry" />
        </mxCell>
        <mxCell id="m7IBBowrxkoO5DfL3Zj2-22" value="raça&amp;nbsp;" style="ellipse;whiteSpace=wrap;html=1;align=center;" vertex="1" parent="1">
          <mxGeometry x="610" y="280" width="100" height="40" as="geometry" />
        </mxCell>
        <mxCell id="m7IBBowrxkoO5DfL3Zj2-29" value="" style="endArrow=none;html=1;rounded=0;entryX=0;entryY=1;entryDx=0;entryDy=0;" edge="1" parent="1" target="m7IBBowrxkoO5DfL3Zj2-6">
          <mxGeometry relative="1" as="geometry">
            <mxPoint x="350" y="370" as="sourcePoint" />
            <mxPoint x="510" y="370" as="targetPoint" />
          </mxGeometry>
        </mxCell>
        <mxCell id="m7IBBowrxkoO5DfL3Zj2-38" value="1" style="edgeLabel;html=1;align=center;verticalAlign=middle;resizable=0;points=[];" vertex="1" connectable="0" parent="m7IBBowrxkoO5DfL3Zj2-29">
          <mxGeometry x="0.7472" y="-4" relative="1" as="geometry">
            <mxPoint as="offset" />
          </mxGeometry>
        </mxCell>
        <mxCell id="m7IBBowrxkoO5DfL3Zj2-30" value="" style="endArrow=none;html=1;rounded=0;entryX=0;entryY=1;entryDx=0;entryDy=0;exitX=1;exitY=0;exitDx=0;exitDy=0;" edge="1" parent="1" source="m7IBBowrxkoO5DfL3Zj2-4" target="m7IBBowrxkoO5DfL3Zj2-9">
          <mxGeometry relative="1" as="geometry">
            <mxPoint x="160" y="480" as="sourcePoint" />
            <mxPoint x="320" y="480" as="targetPoint" />
          </mxGeometry>
        </mxCell>
        <mxCell id="m7IBBowrxkoO5DfL3Zj2-37" value="1" style="edgeLabel;html=1;align=center;verticalAlign=middle;resizable=0;points=[];" vertex="1" connectable="0" parent="m7IBBowrxkoO5DfL3Zj2-30">
          <mxGeometry x="-0.8261" y="1" relative="1" as="geometry">
            <mxPoint as="offset" />
          </mxGeometry>
        </mxCell>
      </root>
    </mxGraphModel>
  </diagram>
  <diagram id="yRAagxVTfvorhN_VJOvQ" name="Página-5">
    <mxGraphModel dx="1235" dy="675" grid="1" gridSize="10" guides="1" tooltips="1" connect="1" arrows="1" fold="1" page="1" pageScale="1" pageWidth="827" pageHeight="1169" math="0" shadow="0">
      <root>
        <mxCell id="0" />
        <mxCell id="1" parent="0" />
        <mxCell id="eOOwLr6FvMYHfVo_skny-1" value="&lt;div&gt;A Optus é uma empresa no ramo musical que deseja realizar o gerenciamento dos lançamentos de novos cds de seus artistas. Cada álbum lançado poderá conter mais de um estilo vinculado (ex.: Indie e Folk).&lt;/div&gt;&lt;div&gt;É importante que você crie também uma estratégia para que os usuários possuam acesso à plataforma.&lt;/div&gt;&lt;div&gt;Os usuários deverão conter nome, email, senha e o tipo de permissão (eles podem ser do tipo administrador ou comum).&lt;/div&gt;&lt;div&gt;&lt;br&gt;&lt;/div&gt;&lt;div&gt;Observações:&lt;/div&gt;&lt;div&gt;Os Artistas deverão possuir somente nome.&lt;/div&gt;&lt;div&gt;Estilos: nome.&lt;/div&gt;&lt;div&gt;Albuns: titulo, data de lançamento, localizacao, quantidade de minutos, se o álbum está ativo para visualização, a quem pertence (somente um artista por álbum) e quais os estilos vinculados.&lt;/div&gt;" style="text;html=1;align=center;verticalAlign=middle;resizable=0;points=[];autosize=1;strokeColor=none;fillColor=none;" vertex="1" parent="1">
          <mxGeometry x="10" y="8" width="1140" height="130" as="geometry" />
        </mxCell>
        <mxCell id="hlD4S-iDiyHtPYz4L70s-18" value="" style="edgeStyle=orthogonalEdgeStyle;rounded=0;orthogonalLoop=1;jettySize=auto;html=1;" edge="1" parent="1" source="hlD4S-iDiyHtPYz4L70s-1" target="hlD4S-iDiyHtPYz4L70s-17">
          <mxGeometry relative="1" as="geometry" />
        </mxCell>
        <mxCell id="hlD4S-iDiyHtPYz4L70s-22" style="edgeStyle=orthogonalEdgeStyle;rounded=0;orthogonalLoop=1;jettySize=auto;html=1;entryX=0;entryY=0.5;entryDx=0;entryDy=0;" edge="1" parent="1" source="hlD4S-iDiyHtPYz4L70s-1" target="hlD4S-iDiyHtPYz4L70s-20">
          <mxGeometry relative="1" as="geometry" />
        </mxCell>
        <mxCell id="hlD4S-iDiyHtPYz4L70s-1" value="álbum" style="whiteSpace=wrap;html=1;align=center;" vertex="1" parent="1">
          <mxGeometry x="210" y="400" width="100" height="40" as="geometry" />
        </mxCell>
        <mxCell id="hlD4S-iDiyHtPYz4L70s-7" style="edgeStyle=orthogonalEdgeStyle;rounded=0;orthogonalLoop=1;jettySize=auto;html=1;entryX=0;entryY=0.5;entryDx=0;entryDy=0;" edge="1" parent="1" source="hlD4S-iDiyHtPYz4L70s-2" target="hlD4S-iDiyHtPYz4L70s-1">
          <mxGeometry relative="1" as="geometry">
            <Array as="points">
              <mxPoint x="80" y="420" />
            </Array>
          </mxGeometry>
        </mxCell>
        <mxCell id="hlD4S-iDiyHtPYz4L70s-2" value="Título&amp;nbsp;" style="ellipse;whiteSpace=wrap;html=1;align=center;" vertex="1" parent="1">
          <mxGeometry x="30" y="320" width="100" height="40" as="geometry" />
        </mxCell>
        <mxCell id="hlD4S-iDiyHtPYz4L70s-8" style="edgeStyle=orthogonalEdgeStyle;rounded=0;orthogonalLoop=1;jettySize=auto;html=1;entryX=0;entryY=0.5;entryDx=0;entryDy=0;" edge="1" parent="1" source="hlD4S-iDiyHtPYz4L70s-3" target="hlD4S-iDiyHtPYz4L70s-1">
          <mxGeometry relative="1" as="geometry" />
        </mxCell>
        <mxCell id="hlD4S-iDiyHtPYz4L70s-3" value="data&amp;nbsp;" style="ellipse;whiteSpace=wrap;html=1;align=center;" vertex="1" parent="1">
          <mxGeometry x="150" y="320" width="100" height="40" as="geometry" />
        </mxCell>
        <mxCell id="hlD4S-iDiyHtPYz4L70s-9" style="edgeStyle=orthogonalEdgeStyle;rounded=0;orthogonalLoop=1;jettySize=auto;html=1;entryX=0.919;entryY=-0.028;entryDx=0;entryDy=0;entryPerimeter=0;" edge="1" parent="1" source="hlD4S-iDiyHtPYz4L70s-4" target="hlD4S-iDiyHtPYz4L70s-1">
          <mxGeometry relative="1" as="geometry" />
        </mxCell>
        <mxCell id="hlD4S-iDiyHtPYz4L70s-4" value="localização" style="ellipse;whiteSpace=wrap;html=1;align=center;" vertex="1" parent="1">
          <mxGeometry x="280" y="320" width="100" height="40" as="geometry" />
        </mxCell>
        <mxCell id="hlD4S-iDiyHtPYz4L70s-11" style="edgeStyle=orthogonalEdgeStyle;rounded=0;orthogonalLoop=1;jettySize=auto;html=1;entryX=0.5;entryY=0;entryDx=0;entryDy=0;" edge="1" parent="1" source="hlD4S-iDiyHtPYz4L70s-5" target="hlD4S-iDiyHtPYz4L70s-1">
          <mxGeometry relative="1" as="geometry">
            <Array as="points" />
          </mxGeometry>
        </mxCell>
        <mxCell id="hlD4S-iDiyHtPYz4L70s-5" value="tempo" style="ellipse;whiteSpace=wrap;html=1;align=center;" vertex="1" parent="1">
          <mxGeometry x="210" y="250" width="100" height="40" as="geometry" />
        </mxCell>
        <mxCell id="hlD4S-iDiyHtPYz4L70s-12" value="estilo&amp;nbsp;" style="whiteSpace=wrap;html=1;align=center;" vertex="1" parent="1">
          <mxGeometry x="210" y="640" width="100" height="40" as="geometry" />
        </mxCell>
        <mxCell id="hlD4S-iDiyHtPYz4L70s-14" value="" style="edgeStyle=orthogonalEdgeStyle;rounded=0;orthogonalLoop=1;jettySize=auto;html=1;" edge="1" parent="1" source="hlD4S-iDiyHtPYz4L70s-13" target="hlD4S-iDiyHtPYz4L70s-12">
          <mxGeometry relative="1" as="geometry" />
        </mxCell>
        <mxCell id="hlD4S-iDiyHtPYz4L70s-13" value="nome&amp;nbsp;" style="ellipse;whiteSpace=wrap;html=1;align=center;" vertex="1" parent="1">
          <mxGeometry x="60" y="640" width="100" height="40" as="geometry" />
        </mxCell>
        <mxCell id="hlD4S-iDiyHtPYz4L70s-19" value="" style="edgeStyle=orthogonalEdgeStyle;rounded=0;orthogonalLoop=1;jettySize=auto;html=1;" edge="1" parent="1" source="hlD4S-iDiyHtPYz4L70s-17" target="hlD4S-iDiyHtPYz4L70s-12">
          <mxGeometry relative="1" as="geometry" />
        </mxCell>
        <mxCell id="hlD4S-iDiyHtPYz4L70s-17" value="possui&amp;nbsp;" style="shape=rhombus;perimeter=rhombusPerimeter;whiteSpace=wrap;html=1;align=center;" vertex="1" parent="1">
          <mxGeometry x="200" y="525" width="120" height="60" as="geometry" />
        </mxCell>
        <mxCell id="hlD4S-iDiyHtPYz4L70s-23" style="edgeStyle=orthogonalEdgeStyle;rounded=0;orthogonalLoop=1;jettySize=auto;html=1;" edge="1" parent="1" source="hlD4S-iDiyHtPYz4L70s-20" target="hlD4S-iDiyHtPYz4L70s-21">
          <mxGeometry relative="1" as="geometry" />
        </mxCell>
        <mxCell id="hlD4S-iDiyHtPYz4L70s-20" value="possui&amp;nbsp;" style="shape=rhombus;perimeter=rhombusPerimeter;whiteSpace=wrap;html=1;align=center;" vertex="1" parent="1">
          <mxGeometry x="460" y="390" width="120" height="60" as="geometry" />
        </mxCell>
        <mxCell id="hlD4S-iDiyHtPYz4L70s-28" style="edgeStyle=orthogonalEdgeStyle;rounded=0;orthogonalLoop=1;jettySize=auto;html=1;entryX=0.5;entryY=0;entryDx=0;entryDy=0;" edge="1" parent="1" source="hlD4S-iDiyHtPYz4L70s-21" target="hlD4S-iDiyHtPYz4L70s-27">
          <mxGeometry relative="1" as="geometry" />
        </mxCell>
        <mxCell id="hlD4S-iDiyHtPYz4L70s-21" value="artista&amp;nbsp;" style="whiteSpace=wrap;html=1;align=center;" vertex="1" parent="1">
          <mxGeometry x="670" y="400" width="100" height="40" as="geometry" />
        </mxCell>
        <mxCell id="hlD4S-iDiyHtPYz4L70s-25" value="" style="edgeStyle=orthogonalEdgeStyle;rounded=0;orthogonalLoop=1;jettySize=auto;html=1;" edge="1" parent="1" source="hlD4S-iDiyHtPYz4L70s-24" target="hlD4S-iDiyHtPYz4L70s-21">
          <mxGeometry relative="1" as="geometry" />
        </mxCell>
        <mxCell id="hlD4S-iDiyHtPYz4L70s-24" value="&lt;span style=&quot;border-bottom: 1px dotted&quot;&gt;nome&amp;nbsp;&lt;/span&gt;" style="ellipse;whiteSpace=wrap;html=1;align=center;" vertex="1" parent="1">
          <mxGeometry x="670" y="320" width="100" height="40" as="geometry" />
        </mxCell>
        <mxCell id="hlD4S-iDiyHtPYz4L70s-27" value="empresa" style="whiteSpace=wrap;html=1;align=center;" vertex="1" parent="1">
          <mxGeometry x="670" y="630" width="100" height="40" as="geometry" />
        </mxCell>
      </root>
    </mxGraphModel>
  </diagram>
</mxfile>
